ply
format ascii 1.0
comment Created by Blender 2.79 (sub 0) - www.blender.org, source file: ''
element vertex 130
property float x
property float y
property float z
property float nx
property float ny
property float nz
property float s
property float t
element face 62
property list uchar uint vertex_indices
end_header
17.271069 23.028091 0.000000 0.000000 0.000000 1.000000 0.699559 0.799460
17.271069 17.271069 0.000000 0.000000 0.000000 1.000000 0.699559 0.699558
23.028091 17.271069 0.000000 0.000000 0.000000 1.000000 0.799461 0.699558
23.028091 23.028091 0.000000 0.000000 0.000000 1.000000 0.799461 0.799460
17.271069 11.514046 0.000000 0.000000 0.000000 1.000000 0.699559 0.599656
23.028091 11.514046 0.000000 0.000000 0.000000 1.000000 0.799460 0.599656
17.271069 5.757023 0.000000 0.000000 0.000000 1.000000 0.699558 0.499754
23.028091 5.757023 0.000000 0.000000 0.000000 1.000000 0.799460 0.499754
17.271069 0.000000 0.000000 0.000000 0.000000 1.000000 0.699558 0.399852
23.028091 0.000000 0.000000 0.000000 0.000000 1.000000 0.799460 0.399852
0.000000 -17.271069 0.000000 -0.384845 0.000000 -0.922981 0.000245 0.899530
5.757023 -17.271069 -2.400439 -0.384845 0.000000 -0.922981 0.108134 0.908223
0.000000 -23.028091 0.000000 -0.384845 0.000000 -0.922981 0.008269 0.799950
17.271069 -5.757023 -2.400439 -0.384845 0.000000 0.922981 0.816420 0.908189
17.271069 -11.514046 -2.400439 -0.384845 0.000000 0.922981 0.716518 0.908189
23.028091 -11.514046 0.000000 -0.384845 0.000000 0.922981 0.716518 0.799950
23.028091 -5.757023 0.000000 -0.384845 0.000000 0.922981 0.816420 0.799950
17.271069 -17.271069 -2.400439 -0.384845 0.000000 0.922981 0.616617 0.908189
23.028091 -17.271069 0.000000 -0.384845 0.000000 0.922981 0.616616 0.799950
-23.028091 23.028091 0.000000 0.000000 0.000000 1.000000 0.000245 0.799460
-23.028091 17.271069 0.000000 0.000000 0.000000 1.000000 0.000245 0.699558
-17.271069 17.271069 0.000000 0.000000 0.000000 1.000000 0.100147 0.699558
-17.271069 23.028091 0.000000 0.000000 0.000000 1.000000 0.100147 0.799460
-11.514046 17.271069 0.000000 0.000000 0.000000 1.000000 0.200049 0.699558
-11.514046 23.028091 0.000000 0.000000 0.000000 1.000000 0.200049 0.799460
-5.757023 17.271069 0.000000 0.000000 0.000000 1.000000 0.299951 0.699558
-5.757023 23.028091 0.000000 0.000000 0.000000 1.000000 0.299951 0.799460
0.000000 17.271069 0.000000 0.000000 0.000000 1.000000 0.399853 0.699558
0.000000 23.028091 0.000000 0.000000 0.000000 1.000000 0.399853 0.799460
5.757023 17.271069 0.000000 0.000000 0.000000 1.000000 0.499755 0.699558
5.757023 23.028091 0.000000 0.000000 0.000000 1.000000 0.499755 0.799460
11.514046 17.271069 0.000000 0.000000 0.000000 1.000000 0.599657 0.699558
11.514046 23.028091 0.000000 0.000000 0.000000 1.000000 0.599657 0.799460
-23.028091 11.514046 0.000000 0.000000 0.000000 1.000000 0.000245 0.599656
-17.271069 11.514046 0.000000 0.000000 0.000000 1.000000 0.100147 0.599656
-11.514046 11.514046 0.000000 0.000000 0.000000 1.000000 0.200049 0.599656
-5.757023 11.514046 0.000000 0.000000 0.000000 1.000000 0.299951 0.599656
0.000000 11.514046 0.000000 0.000000 0.000000 1.000000 0.399853 0.599656
5.757023 11.514046 0.000000 0.000000 0.000000 1.000000 0.499755 0.599656
11.514046 11.514046 0.000000 0.000000 0.000000 1.000000 0.599657 0.599656
-23.028091 5.757023 0.000000 0.000000 0.000000 1.000000 0.000245 0.499754
-17.271069 5.757023 0.000000 0.000000 0.000000 1.000000 0.100147 0.499754
-11.514046 5.757023 0.000000 0.000000 0.000000 1.000000 0.200049 0.499754
-5.757023 5.757023 0.000000 0.000000 0.000000 1.000000 0.299951 0.499754
0.000000 5.757023 0.000000 0.000000 0.000000 1.000000 0.399853 0.499754
5.757023 5.757023 0.000000 0.000000 0.000000 1.000000 0.499755 0.499754
11.514046 5.757023 0.000000 0.000000 0.000000 1.000000 0.599657 0.499754
-23.028091 0.000000 0.000000 0.000000 0.000000 1.000000 0.000245 0.399852
-17.271069 0.000000 0.000000 0.000000 0.000000 1.000000 0.100147 0.399852
-11.514046 0.000000 0.000000 0.000000 0.000000 1.000000 0.200049 0.399852
-5.757023 0.000000 0.000000 0.000000 0.000000 1.000000 0.299951 0.399852
0.000000 0.000000 0.000000 0.000000 0.000000 1.000000 0.399853 0.399852
5.757023 0.000000 0.000000 0.000000 0.000000 1.000000 0.499755 0.399852
11.514046 0.000000 0.000000 0.000000 0.000000 1.000000 0.599657 0.399852
-5.757023 -5.757023 0.000000 0.000000 0.000000 1.000000 0.299951 0.299951
0.000000 -5.757023 0.000000 0.000000 0.000000 1.000000 0.399853 0.299951
5.757023 0.000000 0.000000 0.000000 -0.384845 0.922981 0.416322 0.908189
5.757023 -5.757023 -2.400439 0.000000 -0.384845 0.922981 0.416322 0.799951
11.514046 -5.757023 -2.400439 0.000000 -0.384845 0.922981 0.516224 0.799950
11.514046 0.000000 0.000000 0.000000 -0.384845 0.922981 0.516224 0.908189
17.271069 -5.757023 -2.400439 0.000000 -0.384845 0.922981 0.616126 0.799950
17.271069 0.000000 0.000000 0.000000 -0.384845 0.922981 0.616126 0.908189
-5.757023 -11.514046 0.000000 0.000000 0.000000 1.000000 0.299951 0.200049
0.000000 -11.514046 0.000000 0.000000 0.000000 1.000000 0.399853 0.200049
0.000000 -5.757023 0.000000 0.384845 0.000000 0.922981 0.908189 0.200539
0.000000 -11.514046 0.000000 0.384845 0.000000 0.922981 0.908189 0.300441
5.757023 -11.514046 -2.400439 0.384845 0.000000 0.922981 0.799951 0.300441
5.757023 -5.757023 -2.400439 0.384845 0.000000 0.922981 0.799951 0.200539
5.757023 -5.757023 -2.400439 0.000000 0.000000 1.000000 0.799951 0.200049
5.757023 -11.514046 -2.400439 0.000000 0.000000 1.000000 0.799951 0.100147
11.514046 -11.514046 -2.400439 0.000000 0.000000 1.000000 0.899853 0.100147
11.514046 -5.757023 -2.400439 0.000000 0.000000 1.000000 0.899853 0.200049
17.271069 -11.514046 -2.400439 0.000000 0.000000 1.000000 0.999755 0.100147
17.271069 -5.757023 -2.400439 0.000000 0.000000 1.000000 0.999755 0.200049
-5.757023 -17.271069 0.000000 0.000000 0.000000 1.000000 0.299951 0.100147
0.000000 -17.271069 0.000000 0.000000 0.000000 1.000000 0.399853 0.100147
0.000000 -17.271069 0.000000 0.384845 0.000000 0.922981 0.908189 0.400343
5.757023 -17.271069 -2.400439 0.384845 0.000000 0.922981 0.799951 0.400343
5.757023 -17.271069 -2.400439 0.000000 0.000000 1.000000 0.799951 0.000245
11.514046 -17.271069 -2.400439 0.000000 0.000000 1.000000 0.899853 0.000245
17.271069 -17.271069 -2.400439 0.000000 0.000000 1.000000 0.999755 0.000245
-5.757023 -23.028091 0.000000 0.000000 0.000000 1.000000 0.299951 0.000245
0.000000 -23.028091 0.000000 0.000000 0.000000 1.000000 0.399853 0.000245
17.271069 0.000000 0.000000 0.000000 -0.384845 0.922981 0.799951 0.739631
17.271069 -5.757023 -2.400439 0.000000 -0.384845 0.922981 0.799951 0.631392
23.028091 0.000000 0.000000 0.000000 -0.384845 0.922981 0.899853 0.739630
5.757023 -17.271069 -2.400439 0.000000 0.384845 0.922981 0.108134 0.908223
5.757023 -23.028091 0.000000 0.000000 0.384845 0.922981 0.108171 0.799985
11.514046 -23.028091 0.000000 0.000000 0.384845 0.922981 0.208073 0.800019
11.514046 -17.271069 -2.400439 0.000000 0.384845 0.922981 0.208036 0.908258
17.271069 -23.028091 0.000000 0.000000 0.384845 0.922981 0.307975 0.800054
17.271069 -17.271069 -2.400439 0.000000 0.384845 0.922981 0.307937 0.908292
-11.514046 0.000000 0.000000 0.000000 0.421692 0.906739 0.516224 0.983421
-17.271069 0.000000 0.000000 0.000000 0.421692 0.906739 0.416322 0.983421
-17.271069 -3.905427 1.816276 0.000000 0.421692 0.906739 0.416322 0.908679
-11.514046 -3.905427 1.816276 0.000000 0.421692 0.906739 0.516224 0.908679
-11.514046 -3.905427 1.816276 -0.152905 0.359571 0.920505 0.891875 0.483053
-17.271069 -3.905427 1.816276 -0.152905 0.359571 0.920505 0.799951 0.522173
-14.532906 -10.052570 3.716031 -0.152905 0.359571 0.920505 0.799951 0.400833
-10.220375 -6.238728 3.898905 -0.152905 0.359571 0.920505 0.897049 0.424549
-10.220375 -6.238728 3.898905 -0.364425 0.219918 0.904893 0.911853 0.799950
-14.532906 -10.052570 3.716031 -0.364425 0.219918 0.904893 0.922443 0.899340
-10.239857 -13.853939 5.741797 -0.364425 0.219918 0.904893 0.816911 0.899340
-8.279072 -8.586174 5.878240 -0.364425 0.219918 0.904893 0.849242 0.807285
-8.279072 -8.586174 5.878240 -0.293783 0.096249 0.951014 0.897539 0.498401
-10.239857 -13.853939 5.741797 -0.293783 0.096249 0.951014 0.897539 0.400833
-6.011137 -13.857359 7.112321 -0.293783 0.096249 0.951014 0.970124 0.426946
-4.732583 -8.593042 6.910637 -0.293783 0.096249 0.951014 0.957812 0.520209
-4.732583 -8.593042 6.910637 -0.238319 0.100988 0.965922 0.908333 0.616736
-6.011137 -13.857359 7.112321 -0.238319 0.100988 0.965922 0.908333 0.522664
-1.148978 -13.121175 8.268229 -0.238319 0.100988 0.965922 0.990116 0.554222
0.129576 -7.856858 8.000045 -0.238319 0.100988 0.965922 0.989821 0.648344
0.129576 -7.856858 8.000045 -0.209934 0.103162 0.972258 0.909180 0.970197
-1.148978 -13.121175 8.268229 -0.209934 0.103162 0.972258 0.816911 0.988782
3.853656 -13.237146 9.375039 -0.209934 0.103162 0.972258 0.816911 0.899849
4.097459 -7.851456 8.841916 -0.209934 0.103162 0.972258 0.910921 0.899831
0.000000 -5.757023 0.000000 0.384845 0.000000 0.922981 0.799951 0.531320
5.757023 -5.757023 -2.400439 0.384845 0.000000 0.922981 0.907842 0.522664
0.000000 0.000000 0.000000 0.384845 0.000000 0.922981 0.807941 0.630902
5.757023 -5.757023 -2.400439 0.000000 -0.384845 0.922981 0.907842 0.522664
5.757023 0.000000 0.000000 0.000000 -0.384845 0.922981 0.907842 0.630902
0.000000 0.000000 0.000000 0.000000 -0.384845 0.922981 0.807941 0.630902
0.000000 -23.028091 0.000000 0.000000 0.384845 0.922981 0.008269 0.799950
17.271069 -5.757023 -2.400439 -0.384845 0.000000 0.922981 0.799951 0.631392
23.028091 -5.757023 0.000000 -0.384845 0.000000 0.922981 0.907842 0.640049
23.028091 0.000000 0.000000 -0.384845 0.000000 0.922981 0.899853 0.739630
23.028091 -17.271069 0.000000 -0.384845 0.000000 0.922981 0.415832 0.899673
17.271069 -17.271069 -2.400439 -0.384845 0.000000 0.922981 0.307937 0.908292
23.028091 -23.028091 0.000000 -0.384845 0.000000 0.922981 0.407877 0.800088
23.028091 -23.028091 0.000000 0.000000 0.384845 0.922981 0.407877 0.800088
4 0 1 2 3
4 1 4 5 2
4 4 6 7 5
4 6 8 9 7
3 10 11 12
4 13 14 15 16
4 14 17 18 15
4 19 20 21 22
4 22 21 23 24
4 24 23 25 26
4 26 25 27 28
4 28 27 29 30
4 30 29 31 32
4 32 31 1 0
4 20 33 34 21
4 21 34 35 23
4 23 35 36 25
4 25 36 37 27
4 27 37 38 29
4 29 38 39 31
4 31 39 4 1
4 33 40 41 34
4 34 41 42 35
4 35 42 43 36
4 36 43 44 37
4 37 44 45 38
4 38 45 46 39
4 39 46 6 4
4 40 47 48 41
4 41 48 49 42
4 42 49 50 43
4 43 50 51 44
4 44 51 52 45
4 45 52 53 46
4 46 53 8 6
4 50 54 55 51
4 56 57 58 59
4 59 58 60 61
4 54 62 63 55
4 64 65 66 67
4 68 69 70 71
4 71 70 72 73
4 62 74 75 63
4 65 76 77 66
4 69 78 79 70
4 70 79 80 72
4 74 81 82 75
3 83 84 85
4 86 87 88 89
4 89 88 90 91
4 92 93 94 95
4 96 97 98 99
4 100 101 102 103
4 104 105 106 107
4 108 109 110 111
4 112 113 114 115
3 116 117 118
3 119 120 121
3 122 87 86
3 123 124 125
3 126 127 128
3 91 90 129
